<svg xmlns="http://www.w3.org/2000/svg" viewBox="0 0 59.69 68.46"><defs><style>.cls-1,.cls-2{fill:none;stroke:#000;stroke-linejoin:round;stroke-width:3px;}.cls-2{stroke-linecap:round;}</style></defs><title>Asset 11</title><g id="Layer_2" data-name="Layer 2"><g id="Layer_2-2" data-name="Layer 2"><path class="cls-1" d="M43.85,11.13a4.93,4.93,0,0,0-2.63-6.29L34.53,1.91a4.93,4.93,0,0,0-6.4,2.35L12.93,34.52a9.48,9.48,0,0,0-.76,6.09l.21,1a9.45,9.45,0,0,1-.59,5.7l-1.26,2.89a1.78,1.78,0,0,0,.91,2.35l8.3,3.62a1.78,1.78,0,0,0,2.34-.92l1.26-2.89a9.5,9.5,0,0,1,3.79-4.31l.89-.53A9.37,9.37,0,0,0,32,42.83Z"/><polygon class="cls-1" points="16.48 61.54 8.42 61.56 12.21 52.89 18.97 55.84 16.48 61.54"/><line class="cls-1" x1="12.57" y1="43.67" x2="25.49" y2="49.31"/><line class="cls-1" x1="25.97" y1="8.55" x2="42.17" y2="15.62"/><line class="cls-2" x1="1.5" y1="66.96" x2="58.19" y2="66.96"/></g></g></svg>