<svg xmlns="http://www.w3.org/2000/svg" viewBox="0 0 63.1 61.45"><defs><style>.cls-1,.cls-2{fill:none;stroke:#000;stroke-linejoin:round;stroke-width:3px;}.cls-2{stroke-linecap:round;}</style></defs><title>Asset 12</title><g id="Layer_2" data-name="Layer 2"><g id="Layer_2-2" data-name="Layer 2"><line class="cls-1" x1="28.09" y1="8.09" x2="17.84" y2="8.09"/><path class="cls-1" d="M52.17,8.09h5.46a4,4,0,0,1,4,4V56a4,4,0,0,1-4,4H5.47a4,4,0,0,1-4-4V12.06a4,4,0,0,1,4-4h5.46"/><line class="cls-1" x1="45.26" y1="8.09" x2="35.01" y2="8.09"/><rect class="cls-1" x="10.93" y="1.5" width="6.91" height="13.18" rx="3.46"/><rect class="cls-1" x="28.09" y="1.5" width="6.91" height="13.18" rx="3.46"/><rect class="cls-1" x="45.26" y="1.5" width="6.91" height="13.18" rx="3.46"/><line class="cls-1" x1="1.5" y1="20.87" x2="61.6" y2="20.87"/><circle class="cls-1" cx="31.55" cy="40.41" r="14.29"/><polyline class="cls-2" points="23.79 38.76 28.54 45.49 39.31 35.33"/></g></g></svg>