<svg xmlns="http://www.w3.org/2000/svg" viewBox="0 0 68.01 64.14"><defs><style>.cls-1,.cls-2{fill:none;stroke:#000;stroke-linejoin:round;stroke-width:3px;}.cls-2{stroke-linecap:round;}</style></defs><title>Asset 15</title><g id="Layer_2" data-name="Layer 2"><g id="Layer_2-2" data-name="Layer 2"><rect class="cls-1" x="23.12" y="1.5" width="29.97" height="31.77" rx="1.77"/><path class="cls-1" d="M53.08,24.69,55.29,24a1.65,1.65,0,0,1,2.09,1l9,27a1.64,1.64,0,0,1-1,2.09L40.09,62.56A1.64,1.64,0,0,1,38,61.51L32,43.56"/><path class="cls-1" d="M36.75,33.27,28.86,50.34a1.63,1.63,0,0,1-2.18.8L2.46,40a1.66,1.66,0,0,1-.81-2.2l12-25.84a1.64,1.64,0,0,1,2.18-.8l7.34,3.38"/><line class="cls-2" x1="30.91" y1="8.99" x2="45.29" y2="8.99"/><line class="cls-2" x1="30.91" y1="14.59" x2="45.29" y2="14.59"/><line class="cls-2" x1="30.91" y1="20.18" x2="45.29" y2="20.18"/><line class="cls-2" x1="30.91" y1="25.78" x2="45.29" y2="25.78"/></g></g></svg>